<svg width="40" height="40" viewBox="0 0 40 40" fill="none" xmlns="http://www.w3.org/2000/svg">
<rect width="40" height="40" rx="12" fill="#11B466"/>
<path opacity="0.4" d="M20.0865 30C19.9627 30 19.8389 29.9716 19.7271 29.9137L16.126 28.0496C15.1042 27.5201 14.3048 26.9259 13.6807 26.2336C12.3145 24.7195 11.5544 22.776 11.5424 20.7599L11.5001 14.1243C11.495 13.3584 11.9893 12.671 12.7283 12.4122L19.3405 10.1068C19.7332 9.96656 20.1711 9.9646 20.5708 10.0999L27.2082 12.3268C27.9511 12.5749 28.4535 13.2574 28.4575 14.0223L28.4998 20.6628C28.5129 22.676 27.779 24.6274 26.434 26.1581C25.8169 26.8602 25.0246 27.4632 24.0128 28.0025L20.4439 29.9088C20.3332 29.9686 20.2104 29.999 20.0865 30Z" fill="white"/>
<path d="M19.3192 22.3209C19.1259 22.3219 18.9326 22.2523 18.7836 22.1091L16.8668 20.2656C16.5708 19.9793 16.5678 19.5145 16.8607 19.2262C17.1537 18.9369 17.6319 18.934 17.9289 19.2193L19.3081 20.5451L22.6756 17.2248C22.9696 16.9355 23.4478 16.9326 23.7438 17.2179C24.0408 17.5043 24.0438 17.97 23.7508 18.2574L19.8517 22.1022C19.7048 22.2474 19.5125 22.3199 19.3192 22.3209Z" fill="white"/>
</svg>
