<svg width="21" height="20" viewBox="0 0 21 20" fill="none" xmlns="http://www.w3.org/2000/svg">
<path opacity="0.4" fill-rule="evenodd" clip-rule="evenodd" d="M6.78517 16.5169C7.13683 16.5169 7.42267 16.8028 7.42267 17.1544C7.42267 17.5061 7.13683 17.7911 6.78517 17.7911C6.4335 17.7911 6.1485 17.5061 6.1485 17.1544C6.1485 16.8028 6.4335 16.5169 6.78517 16.5169Z" stroke="#4B5BEB" stroke-width="1.5" stroke-linecap="round" stroke-linejoin="round"/>
<path opacity="0.4" fill-rule="evenodd" clip-rule="evenodd" d="M16.1622 16.5169C16.5139 16.5169 16.7997 16.8028 16.7997 17.1544C16.7997 17.5061 16.5139 17.7911 16.1622 17.7911C15.8106 17.7911 15.5247 17.5061 15.5247 17.1544C15.5247 16.8028 15.8106 16.5169 16.1622 16.5169Z" stroke="#4B5BEB" stroke-width="1.5" stroke-linecap="round" stroke-linejoin="round"/>
<path d="M2.89154 2.70834L4.62487 3.00834L5.42737 12.5692C5.49237 13.3483 6.14321 13.9467 6.92487 13.9467H16.0182C16.7649 13.9467 17.3982 13.3983 17.5057 12.6583L18.2965 7.19334C18.394 6.51918 17.8715 5.91584 17.1907 5.91584H4.90321" stroke="#4B5BEB" stroke-width="1.5" stroke-linecap="round" stroke-linejoin="round"/>
<path opacity="0.4" d="M12.3711 8.99584H14.6819" stroke="#4B5BEB" stroke-width="1.5" stroke-linecap="round" stroke-linejoin="round"/>
</svg>
