<svg width="21" height="20" viewBox="0 0 21 20" fill="none" xmlns="http://www.w3.org/2000/svg">
<path opacity="0.4" d="M3.17719 7.83688H18.0305" stroke="#4B5BEB" stroke-width="1.5" stroke-linecap="round" stroke-linejoin="round"/>
<path opacity="0.4" fill-rule="evenodd" clip-rule="evenodd" d="M6.14819 11.0914C6.14819 10.6772 6.48398 10.3414 6.89819 10.3414H6.90591C7.32013 10.3414 7.65591 10.6772 7.65591 11.0914C7.65591 11.5057 7.32013 11.8414 6.90591 11.8414H6.89819C6.48398 11.8414 6.14819 11.5057 6.14819 11.0914ZM10.6038 10.3414C10.1896 10.3414 9.85379 10.6772 9.85379 11.0914C9.85379 11.5057 10.1896 11.8414 10.6038 11.8414H10.6115C11.0257 11.8414 11.3615 11.5057 11.3615 11.0914C11.3615 10.6772 11.0257 10.3414 10.6115 10.3414H10.6038ZM14.3017 10.3414C13.8875 10.3414 13.5517 10.6772 13.5517 11.0914C13.5517 11.5057 13.8875 11.8414 14.3017 11.8414H14.3094C14.7236 11.8414 15.0594 11.5057 15.0594 11.0914C15.0594 10.6772 14.7236 10.3414 14.3094 10.3414H14.3017ZM14.3017 13.5802C13.8875 13.5802 13.5517 13.916 13.5517 14.3302C13.5517 14.7444 13.8875 15.0802 14.3017 15.0802H14.3094C14.7236 15.0802 15.0594 14.7444 15.0594 14.3302C15.0594 13.916 14.7236 13.5802 14.3094 13.5802H14.3017ZM9.85379 14.3302C9.85379 13.916 10.1896 13.5802 10.6038 13.5802H10.6115C11.0257 13.5802 11.3615 13.916 11.3615 14.3302C11.3615 14.7444 11.0257 15.0802 10.6115 15.0802H10.6038C10.1896 15.0802 9.85379 14.7444 9.85379 14.3302ZM6.89819 13.5802C6.48398 13.5802 6.14819 13.916 6.14819 14.3302C6.14819 14.7444 6.48398 15.0802 6.89819 15.0802H6.90591C7.32013 15.0802 7.65591 14.7444 7.65591 14.3302C7.65591 13.916 7.32013 13.5802 6.90591 13.5802H6.89819Z" fill="#4B5BEB"/>
<path d="M13.9697 1.66667V4.40899" stroke="#4B5BEB" stroke-width="1.5" stroke-linecap="round" stroke-linejoin="round"/>
<path d="M7.23793 1.66667V4.40899" stroke="#4B5BEB" stroke-width="1.5" stroke-linecap="round" stroke-linejoin="round"/>
<path fill-rule="evenodd" clip-rule="evenodd" d="M14.1319 2.98267H7.07578C4.62854 2.98267 3.09998 4.34594 3.09998 6.85185V14.3932C3.09998 16.9385 4.62854 18.3333 7.07578 18.3333H14.1241C16.5791 18.3333 18.0999 16.9622 18.0999 14.4563V6.85185C18.1077 4.34594 16.5868 2.98267 14.1319 2.98267Z" stroke="#4B5BEB" stroke-width="1.5" stroke-linecap="round" stroke-linejoin="round"/>
</svg>
