<svg width="17" height="16" viewBox="0 0 17 16" fill="none" xmlns="http://www.w3.org/2000/svg">
<path d="M9.83315 2.83353V4.44686" stroke="#4B5BEB" stroke-width="1.5" stroke-linecap="round" stroke-linejoin="round"/>
<path d="M9.83315 11.8401V13.1894" stroke="#4B5BEB" stroke-width="1.5" stroke-linecap="round" stroke-linejoin="round"/>
<path d="M9.83315 9.54973V6.33572" stroke="#4B5BEB" stroke-width="1.5" stroke-linecap="round" stroke-linejoin="round"/>
<path fill-rule="evenodd" clip-rule="evenodd" d="M13.0681 13.3333C14.2828 13.3333 15.2667 12.3617 15.2667 11.1621V9.43376C14.4629 9.43376 13.8156 8.79448 13.8156 8.00069C13.8156 7.20691 14.4629 6.56693 15.2667 6.56693L15.266 4.83791C15.266 3.6383 14.2814 2.66667 13.0674 2.66667H4.13263C2.91861 2.66667 1.93404 3.6383 1.93404 4.83791L1.93335 6.62324C2.73713 6.62324 3.38447 7.20691 3.38447 8.00069C3.38447 8.79448 2.73713 9.43376 1.93335 9.43376V11.1621C1.93335 12.3617 2.91722 13.3333 4.13193 13.3333H13.0681Z" stroke="#4B5BEB" stroke-width="1.5" stroke-linecap="round" stroke-linejoin="round"/>
</svg>
