<svg width="20" height="20" viewBox="0 0 20 20" fill="none" xmlns="http://www.w3.org/2000/svg">
<path fill-rule="evenodd" clip-rule="evenodd" d="M15.3333 8.14286C16.8061 8.14286 18 9.35808 18 10.8571V16.2857C18 17.7848 16.8061 19 15.3333 19H4.66667C3.19391 19 2 17.7848 2 16.2857V10.8571C2 9.35808 3.19391 8.14286 4.66667 8.14286V5.42857C4.66667 2.43045 7.05448 0 10 0C12.9455 0 15.3333 2.43045 15.3333 5.42857V8.14286ZM10 1.80952C11.9637 1.80952 13.5556 3.42983 13.5556 5.42857V8.14286H6.44444V5.42857C6.44444 3.42983 8.03632 1.80952 10 1.80952ZM15.3333 9.95238H4.66667C4.17575 9.95238 3.77778 10.3575 3.77778 10.8571V16.2857C3.77778 16.7854 4.17575 17.1905 4.66667 17.1905H15.3333C15.8243 17.1905 16.2222 16.7854 16.2222 16.2857V10.8571C16.2222 10.3575 15.8243 9.95238 15.3333 9.95238Z" fill="#4B5BEB"/>
</svg>
