<svg width="24" height="24" viewBox="0 0 24 24" fill="none" xmlns="http://www.w3.org/2000/svg">
<path fill-rule="evenodd" clip-rule="evenodd" d="M7.82993 18C7.46372 18 7.09751 17.8608 6.81904 17.5804C6.26019 17.0216 6.26019 16.1175 6.81904 15.5587L15.959 6.41912C16.5178 5.86029 17.4219 5.86029 17.9808 6.41912C18.5396 6.97795 18.5396 7.88199 17.9808 8.44082L8.84081 17.5804C8.56234 17.8608 8.19614 18 7.82993 18" fill="#BDCBDE"/>
<path fill-rule="evenodd" clip-rule="evenodd" d="M16.9708 18C16.6048 18 16.2388 17.8609 15.9605 17.5807L6.81877 8.43888C6.26028 7.88049 6.26028 6.97717 6.81877 6.41879C7.37917 5.8604 8.28268 5.8604 8.83926 6.41879L17.981 15.5606C18.5395 16.119 18.5395 17.0224 17.981 17.5807C17.7027 17.8609 17.3349 18 16.9708 18" fill="#BDCBDE"/>
</svg>
