<svg width="21" height="20" viewBox="0 0 21 20" fill="none" xmlns="http://www.w3.org/2000/svg">
<mask id="mask0" mask-type="alpha" maskUnits="userSpaceOnUse" x="2" y="2" width="17" height="16">
<path fill-rule="evenodd" clip-rule="evenodd" d="M2.2666 2.5H18.9447V17.6546H2.2666V2.5Z" fill="white"/>
</mask>
<g mask="url(#mask0)">
<path fill-rule="evenodd" clip-rule="evenodd" d="M10.6105 3.75C10.2139 3.75 9.86053 3.955 9.66219 4.29917L3.66386 14.77C3.46886 15.1117 3.47053 15.5192 3.66803 15.86C3.86553 16.2008 4.21886 16.405 4.61303 16.405H16.5989C16.9922 16.405 17.3455 16.2008 17.543 15.86C17.7414 15.5192 17.743 15.1117 17.5464 14.77L11.5589 4.29917C11.3614 3.955 11.008 3.75 10.6105 3.75ZM16.5989 17.655H4.61304C3.76804 17.655 3.01054 17.2183 2.58637 16.4867C2.1622 15.7558 2.1597 14.8817 2.57887 14.1492L8.57887 3.6775C9.00054 2.94 9.7597 2.5 10.6105 2.5H10.6114C11.4614 2.5 12.2222 2.94083 12.6439 3.67917L18.6322 14.1492C19.0514 14.8817 19.0489 15.7558 18.6247 16.4867C18.2005 17.2183 17.443 17.655 16.5989 17.655Z" fill="#4B5BEB"/>
</g>
<path fill-rule="evenodd" clip-rule="evenodd" d="M10.6031 11.8033C10.2581 11.8033 9.97815 11.5233 9.97815 11.1783V8.595C9.97815 8.25 10.2581 7.97 10.6031 7.97C10.9482 7.97 11.2282 8.25 11.2282 8.595V11.1783C11.2282 11.5233 10.9482 11.8033 10.6031 11.8033Z" fill="#4B5BEB"/>
<path fill-rule="evenodd" clip-rule="evenodd" d="M10.6048 14.5825C10.144 14.5825 9.76733 14.21 9.76733 13.7492C9.76733 13.2883 10.1365 12.9158 10.5965 12.9158H10.6048C11.0657 12.9158 11.4382 13.2883 11.4382 13.7492C11.4382 14.21 11.0657 14.5825 10.6048 14.5825Z" fill="#4B5BEB"/>
</svg>
