<svg width="21" height="20" viewBox="0 0 21 20" fill="none" xmlns="http://www.w3.org/2000/svg">
<path fill-rule="evenodd" clip-rule="evenodd" d="M9.06728 12.1807C8.90728 12.1807 8.74728 12.1198 8.62561 11.9973C8.01061 11.3832 7.67145 10.5665 7.67145 9.69817C7.67145 7.89817 9.13478 6.43401 10.9331 6.43401C11.7981 6.43401 12.6381 6.78317 13.2373 7.39234C13.4789 7.63901 13.4764 8.03401 13.2298 8.27567C12.9839 8.51901 12.5889 8.51484 12.3464 8.26984C11.9806 7.89734 11.4656 7.68401 10.9331 7.68401C9.82395 7.68401 8.92145 8.58734 8.92145 9.69817C8.92145 10.2323 9.13061 10.7357 9.50895 11.114C9.75311 11.3582 9.75311 11.7532 9.50978 11.9973C9.38728 12.1198 9.22728 12.1807 9.06728 12.1807Z" fill="#4B5BEB"/>
<path fill-rule="evenodd" clip-rule="evenodd" d="M11.4061 12.909C11.1103 12.909 10.847 12.6973 10.792 12.3957C10.7303 12.0565 10.9553 11.7307 11.2953 11.669C12.112 11.5207 12.7586 10.8723 12.9053 10.0548C12.967 9.71567 13.292 9.49233 13.6311 9.55067C13.9711 9.6115 14.197 9.9365 14.1361 10.2765C13.897 11.604 12.8453 12.6573 11.5186 12.899C11.4811 12.9057 11.4428 12.909 11.4061 12.909Z" fill="#4B5BEB"/>
<mask id="mask0" mask-type="alpha" maskUnits="userSpaceOnUse" x="2" y="3" width="15" height="12">
<path fill-rule="evenodd" clip-rule="evenodd" d="M2.59998 3.02007H16.0052V14.7685H2.59998V3.02007Z" fill="white"/>
</mask>
<g mask="url(#mask0)">
<path fill-rule="evenodd" clip-rule="evenodd" d="M6.47866 14.7685C6.34366 14.7685 6.20783 14.7243 6.09283 14.6352C4.68366 13.5285 3.49283 11.906 2.65116 9.94434C2.58283 9.786 2.58283 9.60767 2.65116 9.45017C3.502 7.48017 4.70033 5.84934 6.117 4.73517C9.00533 2.44934 12.8503 2.44184 15.7678 4.75184C16.0387 4.966 16.0845 5.35934 15.8703 5.63017C15.6553 5.89934 15.2637 5.94684 14.992 5.73184C12.5203 3.77517 9.33616 3.78184 6.89116 5.71684C5.6945 6.6585 4.667 8.03017 3.90866 9.6985C4.6595 11.3568 5.67783 12.7202 6.86533 13.6518C7.137 13.8652 7.18366 14.2585 6.97033 14.5293C6.847 14.686 6.66366 14.7685 6.47866 14.7685Z" fill="#4B5BEB"/>
</g>
<mask id="mask1" mask-type="alpha" maskUnits="userSpaceOnUse" x="8" y="6" width="12" height="11">
<path fill-rule="evenodd" clip-rule="evenodd" d="M8.19788 6.45067H19.2667V16.4075H8.19788V6.45067Z" fill="white"/>
</mask>
<g mask="url(#mask1)">
<path fill-rule="evenodd" clip-rule="evenodd" d="M10.9334 16.4075C10.1526 16.4075 9.3759 16.2808 8.6259 16.0317C8.2984 15.9225 8.1209 15.5683 8.23007 15.2408C8.33924 14.9125 8.69174 14.7383 9.0209 14.845C9.6434 15.0525 10.2867 15.1575 10.9334 15.1575C13.7901 15.1575 16.4009 13.1225 17.9584 9.69667C17.5784 8.86417 17.1359 8.11001 16.6409 7.45167C16.4334 7.17584 16.4884 6.78334 16.7642 6.57584C17.0392 6.36834 17.4317 6.42501 17.6392 6.70001C18.2426 7.50084 18.7726 8.42667 19.2151 9.44834C19.2842 9.60667 19.2842 9.78667 19.2151 9.94417C17.4684 13.9917 14.3726 16.4075 10.9334 16.4075Z" fill="#4B5BEB"/>
</g>
<mask id="mask2" mask-type="alpha" maskUnits="userSpaceOnUse" x="3" y="2" width="16" height="15">
<path fill-rule="evenodd" clip-rule="evenodd" d="M3.73627 2.5H18.1309V16.8942H3.73627V2.5Z" fill="white"/>
</mask>
<g mask="url(#mask2)">
<path fill-rule="evenodd" clip-rule="evenodd" d="M4.36106 16.8942C4.20106 16.8942 4.04106 16.8333 3.91939 16.7108C3.67523 16.4667 3.67523 16.0717 3.91939 15.8275L17.0644 2.6825C17.3086 2.43833 17.7036 2.43833 17.9477 2.6825C18.1919 2.92667 18.1919 3.3225 17.9477 3.56667L4.80273 16.7108C4.68106 16.8333 4.52106 16.8942 4.36106 16.8942Z" fill="#4B5BEB"/>
</g>
</svg>
