<svg width="21" height="20" viewBox="0 0 21 20" fill="none" xmlns="http://www.w3.org/2000/svg">
<path fill-rule="evenodd" clip-rule="evenodd" d="M10.9329 8.03424C9.8246 8.03424 8.92377 8.93591 8.92377 10.0442C8.92377 11.1517 9.8246 12.0526 10.9329 12.0526C12.0413 12.0526 12.9429 11.1517 12.9429 10.0442C12.9429 8.93591 12.0413 8.03424 10.9329 8.03424ZM10.9329 13.3026C9.13543 13.3026 7.67377 11.8409 7.67377 10.0442C7.67377 8.24674 9.13543 6.78424 10.9329 6.78424C12.7304 6.78424 14.1929 8.24674 14.1929 10.0442C14.1929 11.8409 12.7304 13.3026 10.9329 13.3026Z" fill="#4B5BEB"/>
<mask id="mask0" mask-type="alpha" maskUnits="userSpaceOnUse" x="2" y="3" width="18" height="14">
<path fill-rule="evenodd" clip-rule="evenodd" d="M2.60004 3.33333H19.2666V16.7542H2.60004V3.33333Z" fill="white"/>
</mask>
<g mask="url(#mask0)">
<path fill-rule="evenodd" clip-rule="evenodd" d="M3.90816 10.0436C5.45816 13.4677 8.06899 15.5036 10.9332 15.5044C13.7973 15.5036 16.4082 13.4677 17.9582 10.0436C16.4082 6.62024 13.7973 4.58441 10.9332 4.58357C8.06983 4.58441 5.45816 6.62024 3.90816 10.0436ZM10.9348 16.7544H10.9315H10.9307C7.48399 16.7519 4.389 14.3361 2.65066 10.2902C2.58316 10.1327 2.58316 9.9544 2.65066 9.7969C4.389 5.7519 7.48483 3.33607 10.9307 3.33357C10.9323 3.33274 10.9323 3.33274 10.9332 3.33357C10.9348 3.33274 10.9348 3.33274 10.9357 3.33357C14.3823 3.33607 17.4773 5.7519 19.2157 9.7969C19.284 9.9544 19.284 10.1327 19.2157 10.2902C17.4782 14.3361 14.3823 16.7519 10.9357 16.7544H10.9348Z" fill="#4B5BEB"/>
</g>
</svg>
