<svg width="17" height="16" viewBox="0 0 17 16" fill="none" xmlns="http://www.w3.org/2000/svg">
<path d="M6.70481 13.8476V11.8031C6.70479 11.2831 7.12874 10.8605 7.654 10.8571H9.57805C10.1058 10.8571 10.5337 11.2806 10.5337 11.8031V11.8031V13.8539C10.5335 14.2955 10.8895 14.6563 11.3354 14.6667H12.6181C13.8967 14.6667 14.9333 13.6404 14.9333 12.3745V12.3745V6.55855C14.9265 6.06055 14.6903 5.59289 14.292 5.28868L9.90514 1.7902C9.13662 1.18104 8.04413 1.18104 7.27561 1.7902L2.90801 5.29503C2.50817 5.59801 2.27159 6.06644 2.26666 6.5649V12.3745C2.26666 13.6404 3.30325 14.6667 4.58194 14.6667H5.86464C6.32157 14.6667 6.69198 14.3 6.69198 13.8476V13.8476" stroke="#4B5BEB" stroke-width="1.8" stroke-linecap="round" stroke-linejoin="round"/>
</svg>
