<svg width="20" height="20" viewBox="0 0 20 20" fill="none" xmlns="http://www.w3.org/2000/svg">
<path fill-rule="evenodd" clip-rule="evenodd" d="M1.00977 4C1.00977 3.44772 1.45748 3 2.00977 3H18C18.5523 3 19 3.44772 19 4V15.3242C19 16.4288 18.1046 17.3242 17 17.3242H3C1.89543 17.3242 1 16.4288 1 15.3242V4.32422C1 4.2766 1.00333 4.22976 1.00977 4.18391V4ZM3 6.22375V15.3242H17V6.2241L12.1215 11.1026C10.9499 12.2742 9.05042 12.2742 7.87885 11.1026L3 6.22375ZM4.57232 4.96765H15.428L10.7073 9.68839C10.3168 10.0789 9.68359 10.0789 9.29306 9.68839L4.57232 4.96765Z" fill="#4B5BEB"/>
</svg>
