<svg width="20" height="20" viewBox="0 0 20 20" fill="none" xmlns="http://www.w3.org/2000/svg">
<path fill-rule="evenodd" clip-rule="evenodd" d="M6.38746 2.91667C4.27913 2.91667 2.91663 4.36084 2.91663 6.59667V13.4033C2.91663 15.6392 4.27913 17.0833 6.38746 17.0833H13.6108C15.72 17.0833 17.0833 15.6392 17.0833 13.4033V6.59667C17.0833 4.36084 15.72 2.91667 13.6116 2.91667H6.38746ZM13.6108 18.3333H6.38746C3.56329 18.3333 1.66663 16.3517 1.66663 13.4033V6.59667C1.66663 3.64834 3.56329 1.66667 6.38746 1.66667H13.6116C16.4358 1.66667 18.3333 3.64834 18.3333 6.59667V13.4033C18.3333 16.3517 16.4358 18.3333 13.6108 18.3333Z" fill="#4B5BEB"/>
<path fill-rule="evenodd" clip-rule="evenodd" d="M9.01121 12.6025C8.85204 12.6025 8.69121 12.5417 8.56954 12.4192L6.59121 10.4417C6.34704 10.1975 6.34704 9.80251 6.59121 9.55835C6.83537 9.31418 7.23037 9.31418 7.47454 9.55835L9.01121 11.0933L12.5245 7.58085C12.7687 7.33668 13.1637 7.33668 13.4079 7.58085C13.652 7.82501 13.652 8.22001 13.4079 8.46418L9.45287 12.4192C9.33121 12.5417 9.17121 12.6025 9.01121 12.6025Z" fill="#4B5BEB"/>
</svg>
