<svg width="17" height="16" viewBox="0 0 17 16" fill="none" xmlns="http://www.w3.org/2000/svg">
<ellipse cx="8.31933" cy="4.85203" rx="3.18535" ry="3.18535" stroke="#4B5BEB" stroke-width="1.5" stroke-linecap="round" stroke-linejoin="round"/>
<path fill-rule="evenodd" clip-rule="evenodd" d="M3.26667 12.4676C3.26582 12.2437 3.3159 12.0225 3.41313 11.8207C3.71824 11.2105 4.57865 10.8871 5.29261 10.7407C5.80751 10.6308 6.32953 10.5574 6.85477 10.521C7.82722 10.4356 8.80529 10.4356 9.77773 10.521C10.3029 10.5578 10.8249 10.6312 11.3399 10.7407C12.0539 10.8871 12.9143 11.18 13.2194 11.8207C13.4149 12.2319 13.4149 12.7093 13.2194 13.1205C12.9143 13.7612 12.0539 14.0542 11.3399 14.1945C10.8256 14.3089 10.3034 14.3844 9.77773 14.4203C8.98624 14.4874 8.19105 14.4996 7.39787 14.4569C7.2148 14.4569 7.03784 14.4569 6.85477 14.4203C6.33108 14.3849 5.81087 14.3094 5.29871 14.1945C4.57865 14.0542 3.72434 13.7612 3.41313 13.1205C3.31639 12.9165 3.26636 12.6934 3.26667 12.4676Z" stroke="#4B5BEB" stroke-width="1.5" stroke-linecap="round" stroke-linejoin="round"/>
</svg>
